<?xml version="1.0" standalone="no"?>
<!DOCTYPE svg PUBLIC "-//W3C//DTD SVG 20010904//EN"
 "http://www.w3.org/TR/2001/REC-SVG-20010904/DTD/svg10.dtd">
<svg version="1.0" xmlns="http://www.w3.org/2000/svg"
 width="300.000000pt" height="300.000000pt" viewBox="0 0 300.000000 300.000000"
 preserveAspectRatio="xMidYMid meet">
<metadata>
Created by potrace 1.11, written by Peter Selinger 2001-2013
</metadata>
<g transform="translate(0.000000,300.000000) scale(0.100000,-0.100000)"
fill="#000000" stroke="none">
<path d="M0 1500 l0 -1500 1500 0 1500 0 0 1500 0 1500 -1500 0 -1500 0 0
-1500z m1747 1094 c-3 -3 -12 -4 -19 -1 -8 3 -5 6 6 6 11 1 17 -2 13 -5z m-47
-94 c0 -5 -4 -10 -10 -10 -5 0 -10 5 -10 10 0 6 5 10 10 10 6 0 10 -4 10 -10z
m30 -10 c0 -5 -4 -10 -10 -10 -5 0 -10 5 -10 10 0 6 5 10 10 10 6 0 10 -4 10
-10z m70 -20 c-8 -5 -19 -10 -25 -10 -5 0 -3 5 5 10 8 5 20 10 25 10 6 0 3 -5
-5 -10z m-100 -20 c0 -5 -2 -10 -4 -10 -3 0 -8 5 -11 10 -3 6 -1 10 4 10 6 0
11 -4 11 -10z m25 -20 c3 -5 1 -10 -4 -10 -6 0 -11 5 -11 10 0 6 2 10 4 10 3
0 8 -4 11 -10z m5 -30 c0 -5 -4 -10 -10 -10 -5 0 -10 5 -10 10 0 6 5 10 10 10
6 0 10 -4 10 -10z m35 -10 c-3 -5 -10 -10 -16 -10 -5 0 -9 5 -9 10 0 6 7 10
16 10 8 0 12 -4 9 -10z m-280 -30 c-4 -12 -2 -20 5 -20 7 0 10 -8 7 -20 -5
-19 6 -30 38 -42 6 -1 9 -6 8 -10 -1 -3 14 -14 34 -23 30 -14 43 -16 65 -7 26
10 28 9 23 -9 -8 -23 1 -25 21 -4 9 8 12 19 9 25 -9 14 7 12 29 -5 17 -13 17
-15 3 -21 -14 -5 -9 -12 23 -35 22 -16 39 -32 39 -37 -5 -32 40 -76 58 -58 4
3 -1 6 -10 6 -14 0 -24 16 -28 45 -1 6 -10 16 -20 23 -11 7 -19 17 -19 22 0
16 72 4 85 -13 11 -15 14 -14 35 8 12 13 31 23 41 22 22 -1 25 -13 7 -20 -8
-3 -6 -6 5 -6 9 -1 17 -5 17 -11 0 -10 -27 -3 -46 11 -12 10 -24 2 -24 -16 0
-6 8 -11 18 -12 44 -4 58 -10 70 -30 7 -13 18 -20 27 -17 9 4 15 0 15 -9 0 -8
-8 -18 -17 -21 -11 -5 -13 -10 -7 -14 6 -4 16 -16 22 -27 11 -18 12 -17 6 9
-5 21 -4 27 5 22 13 -9 11 29 -2 52 -14 21 9 13 33 -13 21 -23 22 -25 5 -25
-15 0 -16 -3 -7 -12 17 -17 15 -31 -4 -24 -14 5 -15 4 -5 -8 7 -8 10 -20 6
-26 -3 -5 -1 -10 5 -10 6 0 15 -12 21 -27 8 -21 12 -24 19 -13 9 15 -5 50 -20
50 -6 0 -10 7 -10 15 0 8 5 15 10 15 6 0 10 -6 10 -13 0 -7 8 -20 19 -29 10
-8 18 -26 17 -39 -1 -23 30 -57 47 -51 4 1 7 -4 7 -12 0 -8 6 -17 13 -20 6 -4
2 -5 -9 -2 -20 3 -21 1 -12 -38 5 -22 13 -42 19 -44 13 -5 11 -32 -3 -32 -6 0
-8 -3 -5 -6 4 -4 13 -2 20 4 8 7 17 8 21 4 4 -4 12 -7 17 -7 5 0 9 -4 9 -10 0
-5 -5 -10 -12 -10 -19 0 -11 -164 9 -172 10 -4 11 -9 2 -19 -8 -10 -8 -14 0
-14 6 0 18 -14 27 -32 13 -24 14 -36 5 -49 -6 -10 -8 -25 -5 -33 3 -8 1 -17
-5 -21 -6 -3 -11 -1 -11 4 0 6 -6 11 -12 11 -8 0 -13 -16 -14 -44 -1 -34 2
-43 12 -39 8 3 14 -1 14 -11 0 -9 -8 -16 -17 -16 -13 0 -15 -2 -5 -8 13 -9 7
-41 -10 -52 -4 -3 -9 -17 -11 -30 -2 -13 -9 -26 -15 -28 -7 -2 -12 -10 -12
-18 0 -8 -10 -14 -21 -14 -18 0 -19 -2 -9 -15 7 -8 16 -13 20 -10 5 3 11 2 13
-2 7 -12 -11 -53 -22 -53 -6 0 -8 6 -5 14 4 11 -4 14 -30 13 -22 -1 -36 -6
-36 -14 0 -7 -4 -13 -10 -13 -5 0 -15 -10 -21 -22 -11 -22 -11 -22 15 1 14 14
35 26 45 28 16 2 19 -4 19 -32 0 -24 -5 -35 -15 -35 -8 0 -11 5 -7 12 5 7 3 8
-5 4 -7 -5 -10 -14 -7 -22 5 -13 -10 -29 -29 -29 -5 0 -10 -9 -10 -20 0 -13
-6 -19 -17 -17 -9 1 -19 -2 -23 -8 -11 -18 -35 -11 -35 11 0 15 5 19 15 15 9
-3 15 0 15 9 0 8 -4 15 -8 15 -15 0 -53 -46 -45 -54 5 -4 1 -13 -7 -19 -22
-18 -52 -75 -45 -87 6 -10 -6 -14 -35 -11 -11 1 -11 -1 3 -9 9 -6 17 -16 17
-21 0 -6 -5 -7 -10 -4 -6 3 -17 -1 -26 -10 -9 -9 -23 -14 -31 -11 -22 9 -36
-3 -23 -19 8 -10 5 -13 -15 -11 -29 1 -31 8 -10 26 8 7 15 24 15 37 0 22 3 24
30 18 23 -5 30 -3 28 7 -2 8 4 12 15 10 9 -2 17 2 17 8 0 14 -33 13 -49 -2 -9
-8 -11 -8 -8 -2 4 7 0 15 -9 18 -9 3 -12 2 -9 -5 4 -6 -2 -13 -14 -16 -12 -3
-21 -10 -21 -15 0 -5 -4 -6 -10 -3 -5 3 -10 1 -10 -4 0 -17 -19 -13 -43 10
-22 21 -22 21 -1 15 15 -4 24 -2 28 9 4 12 -2 15 -28 15 -19 0 -36 -3 -39 -7
-2 -5 -2 -2 -1 5 2 6 -3 12 -11 12 -8 0 -15 -5 -15 -11 0 -5 -5 -7 -11 -3 -8
4 -8 8 -1 13 6 4 14 26 18 50 7 42 6 43 -17 36 -34 -10 -34 -12 -14 -35 18
-20 18 -20 -2 -17 -12 2 -28 8 -35 15 -15 12 -28 7 -28 -11 0 -5 7 -7 15 -3 9
3 15 0 15 -9 0 -9 6 -12 15 -9 20 8 19 -3 -1 -24 -15 -15 -15 -16 2 -23 11 -4
31 -8 47 -8 15 -1 27 -5 27 -10 0 -5 9 -13 21 -16 20 -7 21 -32 0 -28 -6 2
-11 -2 -11 -8 0 -5 -5 -7 -12 -3 -7 4 -8 3 -4 -4 4 -6 13 -9 21 -5 9 3 15 -1
15 -11 0 -9 7 -16 15 -16 8 0 15 5 15 10 0 6 5 10 10 10 6 0 10 -4 10 -9 0
-10 -61 -34 -68 -26 -3 3 1 5 9 5 10 1 9 4 -4 11 -9 5 -21 8 -25 5 -4 -2 -13
7 -19 20 -10 22 -9 26 10 34 l22 9 -22 0 c-13 1 -23 6 -23 11 0 6 -7 10 -15
10 -8 0 -15 -6 -15 -14 0 -8 -12 -17 -27 -21 -22 -5 -24 -8 -12 -17 11 -8 11
-9 -3 -4 -10 3 -26 9 -35 12 -14 5 -15 4 -4 -4 24 -17 3 -32 -24 -18 -17 9
-39 11 -65 6 -30 -5 -40 -4 -40 5 0 8 -10 12 -25 10 -14 -1 -25 2 -25 6 0 5
-7 9 -16 9 -11 0 -8 -7 10 -24 30 -27 34 -41 7 -27 -10 6 -21 8 -24 4 -4 -3
-13 0 -21 6 -9 7 -17 8 -20 2 -3 -5 -1 -12 4 -14 6 -3 5 -4 -2 -3 -7 2 -12 11
-12 20 1 9 -3 16 -8 16 -6 0 -8 9 -5 19 3 14 -2 20 -19 24 -13 2 -21 1 -19 -4
3 -4 -5 -18 -18 -31 -18 -19 -26 -21 -35 -12 -9 9 -8 14 1 17 16 6 -1 36 -29
51 -10 6 -26 19 -35 29 -9 9 -20 17 -25 17 -13 1 -59 43 -72 66 -10 17 -11 17
-12 2 0 -10 -5 -18 -11 -18 -5 0 -7 -4 -4 -10 3 -5 -1 -10 -10 -10 -11 0 -15
5 -11 15 5 15 -4 19 -36 16 -28 -3 -21 15 11 29 30 12 33 40 4 40 -19 0 -33
16 -58 63 -11 20 -22 37 -25 37 -14 -1 -32 -19 -35 -36 -2 -10 -4 -20 -4 -22
-1 -2 -6 0 -11 3 -8 5 -8 11 0 20 8 10 8 16 -2 22 -18 11 -58 70 -58 85 0 6
14 -8 32 -32 32 -43 45 -41 34 6 -4 14 -11 22 -16 19 -21 -13 -31 7 -15 25 16
18 12 46 -5 35 -16 -10 -22 17 -7 32 14 14 17 12 31 -21 8 -20 20 -36 25 -36
15 0 13 11 -4 34 -8 11 -15 32 -15 47 0 15 -5 29 -12 31 -7 3 -9 12 -5 23 7
17 8 17 21 0 7 -10 11 -29 10 -44 -2 -14 -1 -18 2 -8 3 9 12 17 20 17 8 0 14
5 14 11 0 7 10 9 25 7 14 -3 30 1 36 8 19 23 39 16 39 -13 0 -26 -1 -26 -14
-7 -8 10 -18 16 -22 11 -9 -8 34 -57 50 -57 6 0 12 20 12 45 1 29 -3 45 -10
45 -7 0 -22 9 -34 20 -12 11 -26 20 -32 20 -5 0 -10 5 -10 11 0 5 -4 7 -10 4
-5 -3 -10 -4 -10 -1 0 2 -3 11 -6 20 -5 12 0 16 20 16 16 0 26 -6 26 -15 0 -8
5 -15 10 -15 6 0 8 10 6 23 -12 52 -10 87 5 87 5 0 8 -4 4 -9 -3 -5 -1 -12 4
-16 5 -3 14 2 19 11 8 14 10 14 25 0 20 -20 27 -20 27 -1 0 8 -7 15 -15 15 -9
0 -18 7 -21 15 -4 8 -10 12 -15 9 -5 -3 -9 0 -9 5 0 6 7 11 15 11 16 0 20 12
8 24 -5 4 -8 13 -8 19 -1 7 -6 11 -12 10 -19 -4 -30 21 -22 52 7 30 7 30 8 -7
1 -30 4 -36 17 -31 23 8 34 -15 28 -59 -3 -30 -1 -38 12 -38 11 0 15 6 11 20
-3 11 -1 23 5 26 5 3 7 12 4 19 -2 7 3 12 12 11 9 0 17 6 17 14 0 9 9 14 23
13 13 -2 22 3 22 10 0 8 -12 14 -30 14 -18 0 -30 -6 -30 -14 0 -17 -36 -17
-47 0 -7 11 -12 67 -15 177 0 28 -7 49 -17 57 -24 18 -41 15 -41 -7 0 -11 7
-20 15 -20 9 0 15 -10 16 -22 0 -13 2 -42 3 -65 2 -35 0 -43 -15 -43 -10 0
-19 -9 -22 -22 -2 -17 -5 -19 -9 -8 -18 47 -21 56 -19 68 1 6 -3 12 -8 12 -11
0 -10 22 4 53 4 10 5 21 1 24 -3 4 -6 -1 -6 -10 0 -9 -4 -17 -9 -17 -14 0 -22
-31 -11 -45 5 -6 7 -15 3 -18 -3 -4 0 -13 7 -22 7 -9 10 -18 6 -22 -3 -3 -6
-1 -6 5 0 6 -6 9 -14 6 -18 -7 -38 28 -30 50 7 19 -7 21 -24 4 -9 -9 -12 -5
-12 17 0 34 15 63 27 52 4 -5 2 -12 -6 -16 -10 -6 -8 -10 6 -15 12 -5 23 0 35
14 18 23 16 40 -5 40 -17 0 -19 59 -3 82 8 11 17 15 20 10 3 -6 1 -16 -6 -24
-18 -19 -20 -35 -3 -41 9 -4 12 0 10 14 -2 11 2 22 10 26 8 3 13 9 10 13 -3 4
3 7 13 6 9 0 17 6 17 14 0 8 6 21 13 28 6 7 12 21 13 30 0 11 2 12 6 4 3 -8
18 2 41 28 19 23 41 39 49 36 7 -3 13 1 13 9 0 16 38 40 48 31 3 -3 0 -6 -6
-6 -7 0 -12 -9 -12 -20 0 -11 -4 -20 -9 -20 -5 0 -9 -13 -9 -30 1 -39 11 -38
23 3 7 21 17 33 31 35 12 2 30 12 39 22 16 17 16 21 2 35 -10 9 -18 11 -22 5
-3 -5 -12 -10 -18 -10 -20 1 25 30 46 30 11 0 26 8 33 18 12 15 15 15 24 2 8
-13 10 -13 10 2 0 21 16 32 33 21 17 -11 47 -14 47 -5 0 4 -7 17 -15 29 -10
14 -12 24 -5 28 14 9 30 -3 24 -18 -3 -9 7 -13 31 -12 23 0 34 4 31 12 -3 6 1
17 9 23 11 9 21 6 44 -11 27 -20 31 -21 46 -5 15 15 15 16 -2 17 -10 1 -24 1
-32 0 -7 -2 -11 4 -9 11 3 7 12 12 22 10 10 -2 16 4 16 18 0 12 -7 20 -17 20
-14 0 -14 2 2 20 10 11 20 20 22 20 2 0 1 -9 -2 -20z m350 -10 c3 -5 1 -10 -4
-10 -6 0 -11 5 -11 10 0 6 2 10 4 10 3 0 8 -4 11 -10z m-395 -35 c0 -8 -9 -15
-20 -15 -25 0 -26 17 -2 23 9 3 18 5 20 6 1 0 2 -6 2 -14z m247 -1 c-3 -3 -12
-4 -19 -1 -8 3 -5 6 6 6 11 1 17 -2 13 -5z m123 -29 c7 -9 8 -15 2 -15 -5 0
-12 7 -16 15 -3 8 -4 15 -2 15 2 0 9 -7 16 -15z m-120 -5 c0 -5 -9 -10 -20
-10 -11 0 -20 5 -20 10 0 6 9 10 20 10 11 0 20 -4 20 -10z m87 4 c-3 -3 -12
-4 -19 -1 -8 3 -5 6 6 6 11 1 17 -2 13 -5z m104 -7 c-1 -12 -15 -9 -19 4 -3 6
1 10 8 8 6 -3 11 -8 11 -12z m-241 -22 c0 -11 -31 -11 -39 -1 -9 10 -6 12 14
8 14 -2 25 -6 25 -7z m130 -16 c0 -6 -4 -7 -10 -4 -5 3 -10 11 -10 16 0 6 5 7
10 4 6 -3 10 -11 10 -16z m254 -4 c-4 -8 -11 -12 -16 -9 -6 4 -5 10 3 15 19
12 19 11 13 -6z m-44 -9 c0 -3 -4 -8 -10 -11 -5 -3 -10 -1 -10 4 0 6 5 11 10
11 6 0 10 -2 10 -4z m-100 -26 c0 -5 -4 -10 -9 -10 -6 0 -13 5 -16 10 -3 6 1
10 9 10 9 0 16 -4 16 -10z m120 -39 c0 -5 3 -16 6 -25 10 -26 -12 -18 -24 9
-10 21 -9 25 3 25 8 0 15 -4 15 -9z m-835 -31 c-3 -5 -11 -10 -16 -10 -6 0 -7
5 -4 10 3 6 11 10 16 10 6 0 7 -4 4 -10z m950 -20 c3 -5 1 -10 -4 -10 -6 0
-11 5 -11 10 0 6 2 10 4 10 3 0 8 -4 11 -10z m65 -7 c0 -11 -3 -14 -8 -7 -4 6
-14 14 -22 17 -10 4 -8 6 8 6 15 1 22 -5 22 -16z m-25 -13 c3 -5 1 -10 -4 -10
-6 0 -11 5 -11 10 0 6 2 10 4 10 3 0 8 -4 11 -10z m95 0 c0 -5 -2 -10 -4 -10
-3 0 -8 5 -11 10 -3 6 -1 10 4 10 6 0 11 -4 11 -10z m-29 -62 c6 -12 6 -18 -1
-18 -5 0 -10 6 -10 14 0 8 -7 16 -15 20 -8 3 -15 11 -15 17 0 15 27 -7 41 -33z
m-81 13 c-1 -15 -19 -33 -28 -27 -8 5 -9 24 -3 43 2 5 31 -10 31 -16z m-1379
-24 c-10 -9 -11 -8 -5 6 3 10 9 15 12 12 3 -3 0 -11 -7 -18z m1410 -10 c-15
-15 -14 -27 4 -27 8 0 15 -4 15 -10 0 -5 -5 -10 -11 -10 -6 0 -9 -7 -6 -14 4
-10 1 -13 -9 -9 -8 3 -13 11 -11 17 2 6 0 22 -5 34 -10 29 -3 43 18 35 11 -4
12 -9 5 -16z m77 -119 c2 -10 7 -18 11 -18 12 -1 54 -41 48 -46 -3 -3 -16 3
-28 15 -21 19 -46 20 -34 0 4 -5 1 -9 -5 -9 -6 0 -8 10 -4 26 5 18 1 29 -11
38 -17 12 -17 13 0 13 10 0 20 -9 23 -19z m57 -8 c3 -5 1 -10 -4 -10 -6 0 -11
5 -11 10 0 6 2 10 4 10 3 0 8 -4 11 -10z m-1534 -44 c5 3 9 0 9 -6 0 -15 -23
-7 -26 8 -1 7 0 8 3 2 2 -5 9 -8 14 -4z m-51 -31 c-7 -9 -15 -13 -17 -11 -6 6
20 36 26 30 2 -2 -2 -10 -9 -19z m64 -23 c2 -4 1 -14 -4 -21 -10 -17 -31 -5
-23 14 6 16 19 20 27 7z m36 -53 c0 -14 7 -19 28 -20 26 0 26 -1 5 -9 -33 -13
-28 -30 6 -26 30 3 43 -9 45 -44 1 -8 6 -15 11 -15 6 0 19 -6 30 -12 32 -18 4
-38 -57 -40 -29 -1 -47 1 -40 4 14 5 17 53 2 53 -5 0 -14 -8 -19 -17 -11 -19
-12 -17 -15 27 -1 10 -10 14 -25 12 -17 -1 -22 2 -18 12 4 11 1 13 -11 10 -14
-5 -14 -4 -3 4 8 6 16 18 17 28 2 9 8 20 14 24 6 4 10 11 9 16 -3 18 1 25 11
19 6 -3 10 -15 10 -26z m-99 -110 c-9 -23 -9 -22 -8 8 1 18 6 28 10 24 4 -4 3
-18 -2 -32z m64 -39 c-9 -15 -25 -12 -25 5 0 8 -5 15 -11 15 -5 0 -8 -4 -4 -9
3 -5 1 -12 -5 -16 -6 -4 -9 4 -8 19 2 23 3 24 30 10 16 -8 26 -19 23 -24z
m1595 -22 c0 -4 -9 -3 -20 4 -11 7 -20 19 -20 27 0 11 5 10 20 -4 11 -10 20
-22 20 -27z m50 -23 c0 -14 -2 -25 -4 -25 -2 0 -6 11 -8 25 -3 14 -1 25 3 25
5 0 9 -11 9 -25z m-1580 11 c0 -3 -4 -8 -10 -11 -5 -3 -10 -1 -10 4 0 6 5 11
10 11 6 0 10 -2 10 -4z m73 -76 c-2 -3 -7 -5 -12 -5 -4 0 -22 -11 -40 -24 -24
-19 -29 -29 -25 -47 9 -36 -12 -29 -27 9 -7 17 -15 36 -17 41 -2 4 5 5 16 2
18 -6 21 -2 24 26 2 20 8 32 16 30 7 -1 15 5 19 14 5 14 10 12 27 -12 12 -16
20 -31 19 -34z m1421 48 c-5 -8 -2 -9 9 -5 11 4 17 1 17 -7 0 -20 -34 -13 -38
7 -2 10 2 17 8 17 6 0 8 -5 4 -12z m-24 -33 c0 -14 -4 -25 -10 -25 -8 0 -8 23
-1 48 4 12 11 -3 11 -23z m-1690 5 c0 -5 -4 -10 -10 -10 -5 0 -10 -7 -10 -17
0 -9 -3 -14 -6 -10 -8 8 5 47 17 47 5 0 9 -4 9 -10z m1771 -24 c-10 -25 -31
-36 -31 -16 0 6 4 10 9 10 5 0 11 10 14 22 4 12 9 20 12 16 3 -3 1 -17 -4 -32z
m-1811 -16 c0 -5 -8 -10 -17 -10 -15 0 -16 2 -3 10 19 12 20 12 20 0z m1720
-4 c0 -3 -4 -8 -10 -11 -5 -3 -10 -1 -10 4 0 6 5 11 10 11 6 0 10 -2 10 -4z
m-1520 -26 c0 -5 -4 -10 -10 -10 -5 0 -10 5 -10 10 0 6 5 10 10 10 6 0 10 -4
10 -10z m1540 0 c0 -5 -4 -10 -10 -10 -5 0 -10 5 -10 10 0 6 5 10 10 10 6 0
10 -4 10 -10z m28 -68 c2 -23 -1 -42 -7 -42 -17 0 -22 19 -11 40 10 19 9 20
-14 14 -19 -5 -26 -2 -26 9 0 11 6 13 22 9 15 -4 19 -2 13 8 -5 8 -3 11 6 8 8
-3 15 -22 17 -46z m-1558 18 c0 -13 -6 -20 -17 -19 -11 0 -13 3 -5 6 6 2 12
11 12 19 0 8 2 14 5 14 3 0 5 -9 5 -20z m97 -22 c-3 -7 -5 -2 -5 12 0 14 2 19
5 13 2 -7 2 -19 0 -25z m1488 -8 c3 -5 1 -10 -4 -10 -6 0 -11 5 -11 10 0 6 2
10 4 10 3 0 8 -4 11 -10z m-1867 -35 c-3 -3 -9 2 -12 12 -6 14 -5 15 5 6 7 -7
10 -15 7 -18z m62 -16 c0 -5 -4 -9 -10 -9 -5 0 -10 7 -10 16 0 8 5 12 10 9 6
-3 10 -10 10 -16z m1710 13 c0 -13 -12 -22 -22 -16 -10 6 -1 24 13 24 5 0 9
-4 9 -8z m-1773 -44 c-3 -8 -6 -5 -6 6 -1 11 2 17 5 13 3 -3 4 -12 1 -19z m53
-33 c-7 -8 -17 -12 -23 -8 -6 4 -3 11 8 19 23 17 32 10 15 -11z m1767 -7 c-3
-7 -5 -2 -5 12 0 14 2 19 5 13 2 -7 2 -19 0 -25z m-87 -8 c0 -5 -5 -10 -11
-10 -5 0 -7 5 -4 10 3 6 8 10 11 10 2 0 4 -4 4 -10z m50 0 c0 -5 -2 -10 -4
-10 -3 0 -8 5 -11 10 -3 6 -1 10 4 10 6 0 11 -4 11 -10z m-1742 -41 c3 -12 2
-12 -6 0 -8 11 -10 11 -15 0 -4 -10 -6 -8 -6 4 -1 21 21 18 27 -4z m222 -61
c0 -5 -9 -3 -20 4 -11 7 -20 16 -20 20 0 5 9 3 20 -4 11 -7 20 -16 20 -20z
m-190 -53 c0 -4 -9 4 -20 18 -11 14 -20 28 -20 32 0 4 9 -4 20 -18 11 -14 20
-28 20 -32z m145 45 c3 -5 1 -10 -4 -10 -6 0 -11 5 -11 10 0 6 2 10 4 10 3 0
8 -4 11 -10z m1629 -5 c-4 -8 -11 -12 -16 -9 -6 4 -5 10 3 15 19 12 19 11 13
-6z m-1684 -5 c0 -5 -2 -10 -4 -10 -3 0 -8 5 -11 10 -3 6 -1 10 4 10 6 0 11
-4 11 -10z m80 -40 c0 -5 -5 -10 -11 -10 -5 0 -7 5 -4 10 3 6 8 10 11 10 2 0
4 -4 4 -10z m1440 6 c0 -3 -4 -8 -10 -11 -5 -3 -10 -1 -10 4 0 6 5 11 10 11 6
0 10 -2 10 -4z m-1407 -36 c3 -11 2 -20 -3 -20 -4 0 -10 9 -13 20 -3 11 -2 20
3 20 4 0 10 -9 13 -20z m72 -12 c24 -27 27 -57 9 -75 -19 -19 -24 -16 -24 15
0 16 -9 37 -20 47 -11 10 -20 22 -20 27 0 17 36 7 55 -14z m1382 -26 c-10 -10
-14 -22 -10 -25 3 -4 1 -7 -5 -7 -16 0 -15 23 0 38 19 19 33 14 15 -6z m-1417
-2 c0 -5 -4 -10 -10 -10 -5 0 -10 5 -10 10 0 6 5 10 10 10 6 0 10 -4 10 -10z
m1296 -18 c-18 -16 -18 -16 -6 6 6 13 14 21 18 18 3 -4 -2 -14 -12 -24z m54 4
c0 -3 -4 -8 -10 -11 -5 -3 -10 -1 -10 4 0 6 5 11 10 11 6 0 10 -2 10 -4z m-90
-61 c-7 -9 -15 -13 -17 -11 -6 6 20 36 26 30 2 -2 -2 -10 -9 -19z m110 21 c0
-3 -4 -8 -10 -11 -5 -3 -10 -1 -10 4 0 6 5 11 10 11 6 0 10 -2 10 -4z m-160
-65 c0 -6 -4 -13 -10 -16 -5 -3 -10 1 -10 9 0 9 5 16 10 16 6 0 10 -4 10 -9z
m31 -34 c-10 -9 -11 -8 -5 6 3 10 9 15 12 12 3 -3 0 -11 -7 -18z m-85 -22 c-1
-29 -16 -35 -16 -7 0 16 8 32 16 32 1 0 1 -11 0 -25z m-31 -5 c3 -5 1 -10 -4
-10 -6 0 -11 5 -11 10 0 6 2 10 4 10 3 0 8 -4 11 -10z m-775 -10 c0 -5 -10
-10 -22 -10 -19 0 -20 2 -8 10 19 13 30 13 30 0z m-89 -27 c-12 -20 -14 -14
-5 12 4 9 9 14 11 11 3 -2 0 -13 -6 -23z m553 3 c-3 -9 -15 -16 -26 -16 -10 0
-16 5 -13 10 4 6 10 8 15 5 4 -3 11 2 14 11 4 9 9 15 11 12 3 -3 3 -13 -1 -22z
m146 10 c0 -3 -4 -8 -10 -11 -5 -3 -10 -1 -10 4 0 6 5 11 10 11 6 0 10 -2 10
-4z m-319 -77 c19 -38 23 -41 52 -35 30 5 31 5 13 -9 -25 -19 -31 -19 -50 0
-8 8 -19 15 -25 15 -6 0 -11 9 -11 19 0 11 -5 21 -12 23 -10 4 -4 28 7 28 3 0
14 -18 26 -41z m370 -14 c5 4 6 -1 2 -10 -5 -13 -7 -14 -14 -3 -5 7 -8 18 -8
23 0 6 3 4 6 -3 2 -6 9 -10 14 -7z m-141 -5 c0 -5 -4 -10 -10 -10 -5 0 -10 5
-10 10 0 6 5 10 10 10 6 0 10 -4 10 -10z m35 0 c-3 -5 -12 -10 -18 -10 -7 0
-6 4 3 10 19 12 23 12 15 0z m265 -4 c0 -3 -4 -8 -10 -11 -5 -3 -10 -1 -10 4
0 6 5 11 10 11 6 0 10 -2 10 -4z m-553 -22 c-3 -3 -12 -4 -19 -1 -8 3 -5 6 6
6 11 1 17 -2 13 -5z m111 -51 c-2 -9 -9 -18 -16 -19 -7 -1 -8 0 -3 2 6 3 7 12
4 20 -3 8 0 14 7 14 6 0 10 -8 8 -17z"/>
<path d="M1510 2250 c0 -5 5 -10 10 -10 6 0 10 5 10 10 0 6 -4 10 -10 10 -5 0
-10 -4 -10 -10z"/>
<path d="M1855 2140 c-3 -5 1 -10 9 -10 8 0 20 -8 25 -17 10 -17 10 -17 11 2
0 15 3 16 12 7 14 -14 48 -16 48 -3 0 11 -59 26 -67 17 -4 -3 -12 -1 -19 5 -8
7 -14 7 -19 -1z"/>
<path d="M1820 2129 c0 -5 5 -7 10 -4 6 3 10 8 10 11 0 2 -4 4 -10 4 -5 0 -10
-5 -10 -11z"/>
<path d="M1187 2113 c-4 -3 -7 -15 -7 -25 0 -26 22 -18 27 10 3 21 -7 29 -20
15z"/>
<path d="M1150 2090 c-9 -6 -10 -10 -3 -10 6 0 15 5 18 10 8 12 4 12 -15 0z"/>
<path d="M1910 2080 c0 -11 6 -20 14 -20 21 0 31 21 15 31 -22 14 -29 11 -29
-11z"/>
<path d="M1110 2076 c0 -14 29 -31 38 -22 5 5 -23 36 -32 36 -3 0 -6 -6 -6
-14z"/>
<path d="M1145 2027 c-23 -29 -35 -57 -25 -57 6 0 15 11 20 25 5 14 14 25 20
25 5 0 10 5 10 10 0 14 -13 12 -25 -3z"/>
<path d="M964 1950 c-12 -5 -25 -13 -29 -19 -11 -18 15 -12 42 9 27 21 22 25
-13 10z"/>
<path d="M1100 1940 c0 -5 5 -10 10 -10 6 0 10 5 10 10 0 6 -4 10 -10 10 -5 0
-10 -4 -10 -10z"/>
<path d="M980 1920 c0 -5 5 -10 10 -10 6 0 10 5 10 10 0 6 -4 10 -10 10 -5 0
-10 -4 -10 -10z"/>
<path d="M1250 1920 c0 -5 5 -10 10 -10 6 0 10 5 10 10 0 6 -4 10 -10 10 -5 0
-10 -4 -10 -10z"/>
<path d="M2118 1915 c-8 -8 2 -45 13 -45 10 0 10 8 0 33 -3 10 -9 15 -13 12z"/>
<path d="M888 1890 c-11 -12 -13 -22 -7 -25 13 -8 39 13 39 31 0 19 -11 16
-32 -6z"/>
<path d="M1000 1890 c0 -5 5 -10 10 -10 6 0 10 5 10 10 0 6 -4 10 -10 10 -5 0
-10 -4 -10 -10z"/>
<path d="M1035 1890 c3 -5 8 -10 11 -10 2 0 4 5 4 10 0 6 -5 10 -11 10 -5 0
-7 -4 -4 -10z"/>
<path d="M1235 1891 c-6 -11 9 -23 19 -14 9 9 7 23 -3 23 -6 0 -12 -4 -16 -9z"/>
<path d="M1312 1873 c0 -10 -3 -27 -8 -38 -7 -18 -7 -19 9 -4 9 9 15 26 14 38
-2 25 -16 29 -15 4z"/>
<path d="M1215 1850 c-3 -5 -1 -10 4 -10 6 0 11 5 11 10 0 6 -2 10 -4 10 -3 0
-8 -4 -11 -10z"/>
<path d="M1250 1804 c0 -8 5 -12 10 -9 6 3 10 10 10 16 0 5 -4 9 -10 9 -5 0
-10 -7 -10 -16z"/>
<path d="M1086 1796 c10 -8 21 -12 24 -10 5 6 -21 24 -34 24 -6 0 -1 -6 10
-14z"/>
<path d="M1220 1780 c0 -5 5 -10 10 -10 6 0 10 5 10 10 0 6 -4 10 -10 10 -5 0
-10 -4 -10 -10z"/>
<path d="M1055 1740 c-3 -5 -1 -10 4 -10 6 0 11 5 11 10 0 6 -2 10 -4 10 -3 0
-8 -4 -11 -10z"/>
<path d="M1057 1594 c-8 -8 1 -24 14 -24 5 0 9 7 9 15 0 15 -12 20 -23 9z"/>
<path d="M1730 1544 c0 -8 5 -12 10 -9 6 4 8 11 5 16 -9 14 -15 11 -15 -7z"/>
<path d="M1540 1540 c0 -5 5 -10 10 -10 6 0 10 5 10 10 0 6 -4 10 -10 10 -5 0
-10 -4 -10 -10z"/>
<path d="M1523 1495 c0 -14 3 -25 8 -25 5 0 9 4 9 9 0 5 3 16 6 25 4 10 1 16
-9 16 -9 0 -14 -10 -14 -25z"/>
<path d="M1426 1491 c-4 -5 -2 -12 3 -15 5 -4 12 -2 15 3 4 5 2 12 -3 15 -5 4
-12 2 -15 -3z"/>
<path d="M1465 1480 c-3 -6 4 -14 17 -19 17 -7 19 -10 6 -10 -21 -1 -25 -21
-4 -21 21 0 28 29 12 46 -17 17 -23 17 -31 4z"/>
<path d="M1040 1330 c0 -5 5 -10 10 -10 6 0 10 5 10 10 0 6 -4 10 -10 10 -5 0
-10 -4 -10 -10z"/>
<path d="M1910 1300 c0 -5 5 -10 11 -10 5 0 7 5 4 10 -3 6 -8 10 -11 10 -2 0
-4 -4 -4 -10z"/>
<path d="M2175 1280 c-3 -5 -1 -10 4 -10 6 0 11 5 11 10 0 6 -2 10 -4 10 -3 0
-8 -4 -11 -10z"/>
<path d="M940 1247 c0 -16 47 -43 57 -33 4 4 -3 16 -17 26 -30 23 -40 25 -40
7z"/>
<path d="M1310 1220 c0 -5 7 -10 15 -10 8 0 15 5 15 10 0 6 -7 10 -15 10 -8 0
-15 -4 -15 -10z"/>
<path d="M1960 1210 c0 -5 5 -10 10 -10 6 0 10 5 10 10 0 6 -4 10 -10 10 -5 0
-10 -4 -10 -10z"/>
<path d="M2070 1200 c0 -11 -11 -27 -26 -36 -15 -10 -23 -23 -19 -32 3 -8 0
-21 -6 -28 -8 -10 -7 -17 4 -29 18 -17 42 -11 52 13 12 30 16 132 5 132 -5 0
-10 -9 -10 -20z"/>
<path d="M990 1190 c0 -5 5 -10 11 -10 5 0 7 5 4 10 -3 6 -8 10 -11 10 -2 0
-4 -4 -4 -10z"/>
<path d="M1260 1190 c0 -6 9 -10 20 -10 11 0 20 -5 20 -11 0 -6 6 -9 13 -6 25
8 12 32 -20 34 -18 2 -33 -2 -33 -7z"/>
<path d="M1990 1179 c0 -5 5 -7 10 -4 6 3 10 8 10 11 0 2 -4 4 -10 4 -5 0 -10
-5 -10 -11z"/>
<path d="M1950 1159 c0 -15 4 -19 16 -15 13 5 15 2 11 -14 -3 -11 -1 -18 4
-14 13 8 11 38 -3 52 -18 18 -28 15 -28 -9z"/>
<path d="M1194 1156 c23 -18 36 -20 36 -6 0 6 -4 10 -9 10 -5 0 -18 3 -28 6
-16 5 -16 4 1 -10z"/>
<path d="M1340 1160 c0 -5 7 -10 16 -10 8 0 12 5 9 10 -3 6 -10 10 -16 10 -5
0 -9 -4 -9 -10z"/>
<path d="M1247 1132 c3 -12 9 -19 14 -16 5 2 19 -2 32 -11 13 -8 27 -12 30 -8
11 11 -14 33 -37 33 -12 0 -27 5 -33 11 -9 9 -10 7 -6 -9z"/>
<path d="M1376 1141 c-4 -5 -2 -12 3 -15 5 -4 12 -2 15 3 4 5 2 12 -3 15 -5 4
-12 2 -15 -3z"/>
<path d="M1532 1095 c-7 -8 -22 -15 -32 -15 -11 0 -20 -7 -20 -15 0 -11 5 -13
18 -6 9 5 29 14 45 20 15 6 27 15 27 21 0 15 -23 12 -38 -5z"/>
<path d="M1960 1085 c-11 -13 -10 -14 4 -9 9 3 16 10 16 15 0 13 -6 11 -20 -6z"/>
<path d="M1735 1070 c3 -5 11 -10 16 -10 6 0 7 5 4 10 -3 6 -11 10 -16 10 -6
0 -7 -4 -4 -10z"/>
<path d="M1441 1029 c-20 -8 -22 -12 -11 -22 10 -9 13 -9 17 1 3 6 13 12 24
12 10 0 19 5 19 10 0 12 -17 12 -49 -1z"/>
<path d="M1312 999 c3 -8 12 -13 21 -11 8 1 18 -2 22 -8 3 -5 1 -10 -5 -10 -6
0 -8 -5 -4 -12 9 -15 -13 -2 -42 24 -17 15 -24 17 -30 7 -4 -7 -3 -14 4 -17
19 -6 14 -22 -8 -22 -11 0 -20 5 -20 10 0 21 -29 21 -50 2 l-22 -20 21 -12
c12 -6 26 -8 32 -5 5 4 15 -7 22 -24 12 -33 37 -50 37 -26 0 8 7 15 15 15 8 0
15 -6 15 -13 0 -19 40 -49 58 -42 13 5 12 9 -7 26 -12 11 -19 24 -16 29 3 5 1
11 -4 15 -6 3 -3 17 7 34 14 25 19 27 39 18 13 -6 23 -14 23 -19 0 -4 7 -8 15
-8 8 0 15 5 15 10 0 6 -5 10 -11 10 -6 0 -8 9 -4 20 5 16 2 20 -17 21 -25 1
-37 3 -82 14 -22 6 -28 5 -24 -6z m15 -75 c2 -7 -6 -10 -22 -6 -35 6 -40 19
-8 18 14 -1 28 -6 30 -12z"/>
<path d="M1640 970 c-8 -5 -10 -10 -5 -10 6 0 17 5 25 10 8 5 11 10 5 10 -5 0
-17 -5 -25 -10z"/>
<path d="M1736 971 c-4 -7 -5 -15 -2 -18 9 -9 19 4 14 18 -4 11 -6 11 -12 0z"/>
<path d="M1682 939 c3 -36 6 -39 33 -28 17 6 17 8 3 8 -12 1 -18 9 -18 26 0
14 -5 25 -10 25 -6 0 -9 -14 -8 -31z"/>
<path d="M2045 960 c3 -5 8 -10 11 -10 2 0 4 5 4 10 0 6 -5 10 -11 10 -5 0 -7
-4 -4 -10z"/>
<path d="M1750 908 c0 -5 11 -8 25 -8 14 0 25 4 25 9 0 5 -11 8 -25 7 -14 0
-25 -4 -25 -8z"/>
<path d="M1816 894 c-9 -24 -7 -28 9 -14 17 14 20 30 6 30 -5 0 -12 -7 -15
-16z"/>
<path d="M1702 879 c2 -7 10 -15 17 -17 8 -3 12 1 9 9 -2 7 -10 15 -17 17 -8
3 -12 -1 -9 -9z"/>
<path d="M1757 883 c-4 -3 -7 -11 -7 -17 0 -6 5 -5 12 2 6 6 9 14 7 17 -3 3
-9 2 -12 -2z"/>
<path d="M1570 860 c0 -5 7 -10 15 -10 8 0 15 5 15 10 0 6 -7 10 -15 10 -8 0
-15 -4 -15 -10z"/>
<path d="M1790 840 c0 -5 5 -10 10 -10 6 0 10 5 10 10 0 6 -4 10 -10 10 -5 0
-10 -4 -10 -10z"/>
<path d="M1370 791 c0 -12 28 -22 35 -12 3 5 -2 12 -11 15 -21 8 -24 8 -24 -3z"/>
<path d="M1428 773 c7 -3 16 -2 19 1 4 3 -2 6 -13 5 -11 0 -14 -3 -6 -6z"/>
<path d="M858 1633 c7 -3 16 -2 19 1 4 3 -2 6 -13 5 -11 0 -14 -3 -6 -6z"/>
</g>
</svg>
